<svg xmlns="http://www.w3.org/2000/svg" width="50" height="70" viewBox="0 0 50 70">
  <g id="location-pin" transform="translate(-37.747)">
    <path id="Path_562" data-name="Path 562" d="M62.747,0c-13.785,0-25,11.714-25,26.114,0,21.454,22.512,42.4,23.47,43.283a2.242,2.242,0,0,0,3.06,0c.958-.881,23.47-21.829,23.47-43.283C87.747,11.714,76.532,0,62.747,0Zm0,64.27c-4.977-5.036-20.37-21.926-20.37-38.156,0-11.734,9.138-21.28,20.37-21.28s20.37,9.546,20.37,21.28C83.117,42.344,67.724,59.234,62.747,64.27Z" fill="#c52d2f"/>
    <path id="Path_563" data-name="Path 563" d="M108.8,59.183c-6.382,0-11.574,5.457-11.574,12.165s5.192,12.165,11.574,12.165,11.574-5.457,11.574-12.165S115.182,59.183,108.8,59.183Zm0,19.5a7.342,7.342,0,1,1,6.945-7.331A7.154,7.154,0,0,1,108.8,78.679Z" transform="translate(-46.053 -45.234)" fill="#c52d2f"/>
  </g>
</svg>
