<svg xmlns="http://www.w3.org/2000/svg" width="70" height="60" viewBox="0 0 70 60">
  <g id="money" transform="translate(0 -56.994)">
    <path id="Path_2" data-name="Path 2" d="M29.13,60.192a22.191,22.191,0,0,0-11.883-3.2,22.191,22.191,0,0,0-11.883,3.2C1.936,62.4.036,65.408,0,68.678H0v36.656c0,6.538,7.576,11.66,17.247,11.66s17.247-5.122,17.247-11.66V68.723h0C34.476,65.435,32.573,62.407,29.13,60.192Zm2.363,23.247c0,4.52-6.524,8.339-14.246,8.339S3,87.959,3,83.439v-.617c3.081,3.052,8.262,5.019,14.246,5.019s11.165-1.967,14.246-5.019Zm0,7.288c0,4.52-6.524,8.339-14.246,8.339S3,95.247,3,90.727V90.11c3.081,3.052,8.262,5.019,14.246,5.019s11.165-1.967,14.246-5.019ZM3,97.4c3.081,3.052,8.262,5.019,14.246,5.019s11.165-1.967,14.246-5.019v.617c0,4.52-6.524,8.339-14.246,8.339S3,102.536,3,98.015V97.4ZM31.493,76.15c0,4.52-6.524,8.339-14.246,8.339S3,80.671,3,76.15v-.759c3.081,3.031,8.262,4.983,14.246,4.983s11.165-1.953,14.246-4.983ZM6.861,63.1a19.408,19.408,0,0,1,10.386-2.751A19.41,19.41,0,0,1,27.632,63.1c2.453,1.578,3.861,3.645,3.861,5.67,0,4.475-6.524,8.256-14.246,8.256S3,73.242,3,68.767C3,66.741,4.407,64.675,6.861,63.1Zm10.386,50.546c-7.722,0-14.246-3.8-14.246-8.309v-.647c3.081,3.052,8.262,5.019,14.246,5.019s11.165-1.967,14.246-5.019v.647C31.493,109.838,24.969,113.643,17.247,113.643Z" fill="#00416d"/>
    <path id="Path_3" data-name="Path 3" d="M283.012,201.136c-.011-3.294-1.914-6.329-5.363-8.547a23.676,23.676,0,0,0-23.766,0c-3.459,2.225-5.364,5.27-5.364,8.575v0h0v14.747c0,6.512,7.576,11.612,17.247,11.612s17.247-5.1,17.247-11.612V201.135h0Zm-3,7.411c0,4.52-6.524,8.339-14.246,8.339s-14.246-3.819-14.246-8.339v-.759c3.081,3.031,8.262,4.983,14.246,4.983s11.165-1.953,14.246-4.983ZM255.38,195.493a20.981,20.981,0,0,1,20.772,0c2.453,1.578,3.861,3.645,3.861,5.67,0,4.475-6.524,8.256-14.246,8.256s-14.246-3.781-14.246-8.256C251.519,199.137,252.926,197.071,255.38,195.493Zm10.386,28.681c-7.722,0-14.246-3.783-14.246-8.261v-.695c3.081,3.052,8.262,5.019,14.246,5.019s11.165-1.967,14.246-5.019v.695C280.012,220.391,273.488,224.174,265.766,224.174Z" transform="translate(-213.012 -111.267)" fill="#00416d"/>
  </g>
</svg>
