<svg xmlns="http://www.w3.org/2000/svg" width="60" height="70" viewBox="0 0 60 70">
  <g id="telephone" transform="translate(-15.84)">
    <g id="Group_126" data-name="Group 126" transform="translate(25.482 0)">
      <g id="Group_125" data-name="Group 125">
        <path id="Path_552" data-name="Path 552" d="M68.158,14.225h-3.7l3.457-3.277a6.352,6.352,0,0,0,1.961-4.611,6.223,6.223,0,0,0-1.539-4.167A5.863,5.863,0,0,0,63.917.126a5.7,5.7,0,0,0-4,1.6l-.713.67a1.853,1.853,0,0,0-.121,2.531,1.71,1.71,0,0,0,1.278.6,1.671,1.671,0,0,0,1.15-.47l.706-.665a2.507,2.507,0,0,1,1.694-.67,2.417,2.417,0,0,1,1.86.842,2.7,2.7,0,0,1,.643,1.765,2.581,2.581,0,0,1-.813,1.941l-6.794,6.408a1.837,1.837,0,0,0-.1,2.5,1.666,1.666,0,0,0,1.312.6h8.138a1.777,1.777,0,0,0,0-3.551Z" transform="translate(-58.265 -0.096)"/>
        <g id="Group_124" data-name="Group 124" transform="translate(12.227)">
          <path id="Path_553" data-name="Path 553" d="M122.269,17.689a1.733,1.733,0,0,1-1.715-1.787V14.561h-6.766a1.533,1.533,0,0,1-1.069-.395,1.751,1.751,0,0,1-.64-1.159,1.838,1.838,0,0,1,.367-1.339S120.869.751,121.02.565a1.583,1.583,0,0,1,1.539-.537,1.7,1.7,0,0,1,.99.538,1.676,1.676,0,0,1,.436,1.177V11a1.774,1.774,0,0,1,1.513,1.772,1.749,1.749,0,0,1-1.513,1.772V15.9A1.734,1.734,0,0,1,122.269,17.689Zm-4.873-6.7h3.158V6.906Z" transform="translate(-112.065 0)"/>
        </g>
        <path id="Path_554" data-name="Path 554" d="M191.943.117A1.716,1.716,0,0,0,190.25,1.9V7.116h-5V1.9a1.706,1.706,0,1,0-3.409,0V15.992a1.706,1.706,0,1,0,3.409,0V10.667h5v5.325a1.706,1.706,0,1,0,3.409,0V1.9A1.726,1.726,0,0,0,191.943.117Z" transform="translate(-153.755 -0.089)"/>
      </g>
    </g>
    <g id="Group_127" data-name="Group 127" transform="translate(15.84 20.994)">
      <path id="Path_555" data-name="Path 555" d="M78,104.681H38.564a6.861,6.861,0,0,0-6.724,6.925v.118a6.861,6.861,0,0,0,6.724,6.925h1l1.954-8.491a1.834,1.834,0,0,1,1.768-1.452H73.162a1.834,1.834,0,0,1,1.766,1.446l1.986,8.5H78a6.736,6.736,0,0,0,6.572-6.925v-.118A6.736,6.736,0,0,0,78,104.681Z" transform="translate(-28.204 -100.893)" fill="#c52d2f"/>
      <path id="Path_556" data-name="Path 556" d="M65.632,88.681H26.2A10.58,10.58,0,0,0,15.84,99.394v.118A10.58,10.58,0,0,0,26.2,110.224h.128l-3.776,16.242a2,2,0,0,0-.121.567v8.759a1.921,1.921,0,0,0,1.894,1.894H67.507a1.8,1.8,0,0,0,1.743-1.894v-8.759a1.942,1.942,0,0,0-.072-.644l-3.741-16.164h.2A10.455,10.455,0,0,0,75.84,99.512v-.118A10.454,10.454,0,0,0,65.632,88.681ZM72.2,99.512a6.736,6.736,0,0,1-6.572,6.925H64.551l-1.986-8.5A1.834,1.834,0,0,0,60.8,96.493H30.922a1.834,1.834,0,0,0-1.768,1.452L27.2,106.437h-1a6.861,6.861,0,0,1-6.724-6.925v-.118A6.861,6.861,0,0,1,26.2,92.469H65.632A6.736,6.736,0,0,1,72.2,99.394v.118ZM26.067,128.927H65.613V133.9H26.067v-4.972Zm.567-3.788,5.721-24.858H59.37l5.811,24.858Z" transform="translate(-15.84 -88.681)"/>
      <rect id="Rectangle_50" data-name="Rectangle 50" width="39.546" height="4.972" transform="translate(10.227 40.246)" fill="#c52d2f"/>
      <path id="Path_557" data-name="Path 557" d="M96.07,137.681H69.056l-5.721,24.858h38.546Zm-7.053,2.224a2.154,2.154,0,1,1-2.066,2.152A2.111,2.111,0,0,1,89.017,139.905Zm-6.457,0a2.154,2.154,0,1,1-2.066,2.152A2.11,2.11,0,0,1,82.561,139.905Zm-8.523,2.152A2.068,2.068,0,1,1,76.1,144.21,2.11,2.11,0,0,1,74.038,142.058Zm2.066,15.6a2.154,2.154,0,1,1,2.066-2.152A2.11,2.11,0,0,1,76.1,157.661Zm0-6.725a2.154,2.154,0,1,1,2.066-2.152A2.11,2.11,0,0,1,76.1,150.935Zm6.457,6.725a2.154,2.154,0,1,1,2.066-2.152A2.11,2.11,0,0,1,82.561,157.661Zm0-6.725a2.154,2.154,0,1,1,2.066-2.152A2.11,2.11,0,0,1,82.561,150.935Zm6.457,6.725a2.154,2.154,0,1,1,2.066-2.152A2.11,2.11,0,0,1,89.017,157.661Zm0-6.725a2.154,2.154,0,1,1,2.066-2.152A2.11,2.11,0,0,1,89.017,150.935Z" transform="translate(-52.541 -126.081)" fill="#c52d2f"/>
      <ellipse id="Ellipse_13" data-name="Ellipse 13" cx="2.066" cy="2.152" rx="2.066" ry="2.152" transform="translate(21.498 13.825)"/>
      <ellipse id="Ellipse_14" data-name="Ellipse 14" cx="2.066" cy="2.152" rx="2.066" ry="2.152" transform="translate(27.954 13.825)"/>
      <ellipse id="Ellipse_15" data-name="Ellipse 15" cx="2.066" cy="2.152" rx="2.066" ry="2.152" transform="translate(34.411 13.825)"/>
      <ellipse id="Ellipse_16" data-name="Ellipse 16" cx="2.066" cy="2.152" rx="2.066" ry="2.152" transform="translate(21.497 20.55)"/>
      <ellipse id="Ellipse_17" data-name="Ellipse 17" cx="2.066" cy="2.152" rx="2.066" ry="2.152" transform="translate(27.954 20.55)"/>
      <ellipse id="Ellipse_18" data-name="Ellipse 18" cx="2.066" cy="2.152" rx="2.066" ry="2.152" transform="translate(34.411 20.55)"/>
      <path id="Path_558" data-name="Path 558" d="M112.494,203.9a2.154,2.154,0,1,0,2.066,2.152A2.11,2.11,0,0,0,112.494,203.9Z" transform="translate(-88.931 -176.619)"/>
      <path id="Path_559" data-name="Path 559" d="M140.9,203.9a2.154,2.154,0,1,0,2.066,2.152A2.11,2.11,0,0,0,140.9,203.9Z" transform="translate(-110.883 -176.619)"/>
      <path id="Path_560" data-name="Path 560" d="M169.312,203.9a2.154,2.154,0,1,0,2.066,2.152A2.11,2.11,0,0,0,169.312,203.9Z" transform="translate(-132.835 -176.619)"/>
    </g>
  </g>
</svg>
