<svg xmlns="http://www.w3.org/2000/svg" width="70" height="60" viewBox="0 0 70 60">
  <g id="time" transform="translate(-5 -52.962)">
    <g id="Group_3" data-name="Group 3" transform="translate(5 52.962)">
      <path id="Path_4" data-name="Path 4" d="M208.24,75.839a1.163,1.163,0,0,0,1.8,0l1.8-2.02a1.541,1.541,0,0,0,0-2.02l-4.067-4.574a1.163,1.163,0,0,0-1.8,0l-1.8,2.02a1.541,1.541,0,0,0,0,2.02l.172.194-1.265,1.422A21.015,21.015,0,0,0,191.787,67.6V65.009h1.394a1.353,1.353,0,0,0,1.265-1.422v-4.2a1.352,1.352,0,0,0-1.265-1.422H185.1a1.353,1.353,0,0,0-1.265,1.422v4.2a1.352,1.352,0,0,0,1.265,1.422H186.5V67.6A21.2,21.2,0,0,0,175.2,72.881l-1.265-1.422.172-.194a1.541,1.541,0,0,0,0-2.02l-1.8-2.02a1.163,1.163,0,0,0-1.8,0L166.452,71.8a1.541,1.541,0,0,0,0,2.02l1.8,2.02a1.163,1.163,0,0,0,1.8,0l.172-.194,1.265,1.422a27.169,27.169,0,0,0-4.814,15.614c0,13.933,10.088,25.28,22.475,25.28s22.475-11.347,22.475-25.28A27.275,27.275,0,0,0,206.8,77.068l1.265-1.422Zm-19.1,36.272c-9.513,0-17.258-8.712-17.258-19.413s7.745-19.413,17.258-19.413S206.4,82,206.4,92.7,198.655,112.111,189.143,112.111Z" transform="translate(-142.21 -57.962)" fill="#00416d"/>
      <path id="Path_5" data-name="Path 5" d="M50.227,314.679a2.523,2.523,0,0,0,0,5.011H62.313a1.875,1.875,0,0,0,.675-.129,31.987,31.987,0,0,1-1.38-4.9H50.227Z" transform="translate(-41.102 -273.17)" fill="#00416d"/>
      <path id="Path_6" data-name="Path 6" d="M21.871,200.291a2.2,2.2,0,0,0-.661-.129H2.227a2.523,2.523,0,0,0,0,5.011H20.492A32.236,32.236,0,0,1,21.871,200.291Z" transform="translate(0 -177.177)" fill="#00416d"/>
      <path id="Path_7" data-name="Path 7" d="M38.327,259.951c0-.841.043-1.665.1-2.489h-14.6a2.523,2.523,0,0,0,0,5.011H38.413C38.37,261.648,38.327,260.808,38.327,259.951Z" transform="translate(-18.496 -225.215)" fill="#00416d"/>
      <path id="Path_8" data-name="Path 8" d="M316.889,224.2a1.293,1.293,0,0,0-1.8-.6l-7.774,4.283a3.126,3.126,0,0,0-3.046.242,4.128,4.128,0,0,0-1.207,5.269,3.22,3.22,0,0,0,4.685,1.358,3.911,3.911,0,0,0,1.653-2.877l7.084-5.609A1.661,1.661,0,0,0,316.889,224.2Zm-9.412,7.645a1.5,1.5,0,0,1-1.825,1.212A1.726,1.726,0,0,1,304.573,231a1.5,1.5,0,0,1,1.825-1.212A1.718,1.718,0,0,1,307.476,231.845Z" transform="translate(-259.107 -196.688)" fill="#00416d"/>
      <path id="Path_9" data-name="Path 9" d="M356.149,197.931a1.316,1.316,0,0,0,1.911-.6,1.676,1.676,0,0,0-.532-2.15,1.319,1.319,0,0,0-1.911.6,1.755,1.755,0,0,0,.014,1.584A1.844,1.844,0,0,0,356.149,197.931Z" transform="translate(-304.359 -172.829)" fill="#00416d"/>
      <path id="Path_10" data-name="Path 10" d="M317.608,187.914a1.587,1.587,0,1,0-1.408-1.568,1.764,1.764,0,0,0,.187.792A1.359,1.359,0,0,0,317.608,187.914Z" transform="translate(-270.762 -164.266)" fill="#00416d"/>
      <path id="Path_11" data-name="Path 11" d="M318.994,341.663h0a1.521,1.521,0,0,0-1.394,1.6,1.7,1.7,0,0,0,.187.776,1.36,1.36,0,0,0,1.221.776,1.5,1.5,0,0,0,1.38-1.6A1.476,1.476,0,0,0,318.994,341.663Z" transform="translate(-271.961 -295.806)" fill="#00416d"/>
      <path id="Path_12" data-name="Path 12" d="M357.4,331.038a1.673,1.673,0,0,0-.489,2.15h0a1.307,1.307,0,0,0,1.926.55,1.673,1.673,0,0,0,.489-2.15A1.334,1.334,0,0,0,357.4,331.038Z" transform="translate(-305.455 -286.717)" fill="#00416d"/>
      <path id="Path_13" data-name="Path 13" d="M387.228,302.122a1.327,1.327,0,0,0-1.911.6,1.756,1.756,0,0,0,.014,1.584,1.428,1.428,0,0,0,.517.566,1.316,1.316,0,0,0,1.911-.6A1.692,1.692,0,0,0,387.228,302.122Z" transform="translate(-329.791 -262.488)" fill="#00416d"/>
      <path id="Path_14" data-name="Path 14" d="M241.1,265.631a1.5,1.5,0,0,0-1.408-1.568,1.521,1.521,0,0,0-1.394,1.6,1.7,1.7,0,0,0,.187.776,1.36,1.36,0,0,0,1.221.776A1.477,1.477,0,0,0,241.1,265.631Z" transform="translate(-204.056 -230.749)" fill="#00416d"/>
      <path id="Path_15" data-name="Path 15" d="M250,303.4a1.673,1.673,0,0,0-.489,2.15h0a1.318,1.318,0,0,0,1.926.55,1.706,1.706,0,0,0,.489-2.166A1.329,1.329,0,0,0,250,303.4Z" transform="translate(-213.488 -263.538)" fill="#00416d"/>
      <path id="Path_16" data-name="Path 16" d="M395.3,264.146a1.647,1.647,0,0,0,.2.792,1.389,1.389,0,0,0,1.221.776,1.585,1.585,0,1,0-1.423-1.568Z" transform="translate(-338.494 -229.491)" fill="#00416d"/>
      <path id="Path_17" data-name="Path 17" d="M249.1,227.769a1.316,1.316,0,0,0,1.911-.6h0a1.685,1.685,0,0,0-.546-2.15,1.33,1.33,0,0,0-1.911.6,1.8,1.8,0,0,0,.014,1.584A1.584,1.584,0,0,0,249.1,227.769Z" transform="translate(-212.682 -197.849)" fill="#00416d"/>
      <path id="Path_18" data-name="Path 18" d="M278.839,198.589a.015.015,0,0,0,.014-.016c.014,0,.014,0,.014-.016h.014a1.689,1.689,0,0,0,.489-2.15,1.323,1.323,0,0,0-1.926-.566.015.015,0,0,0-.014.016c-.014,0-.014.016-.029.016a1.673,1.673,0,0,0-.489,2.15h0A1.328,1.328,0,0,0,278.839,198.589Z" transform="translate(-236.951 -173.373)" fill="#00416d"/>
      <path id="Path_19" data-name="Path 19" d="M280.328,331.784a1.316,1.316,0,0,0-1.911.6,1.756,1.756,0,0,0,.014,1.584,1.593,1.593,0,0,0,.517.582,1.338,1.338,0,0,0,1.911-.6A1.7,1.7,0,0,0,280.328,331.784Z" transform="translate(-238.253 -287.349)" fill="#00416d"/>
    </g>
  </g>
</svg>
