<svg id="wooden-box" xmlns="http://www.w3.org/2000/svg" width="60" height="60" viewBox="0 0 60 60">
  <g id="Group_4" data-name="Group 4">
    <path id="Path_20" data-name="Path 20" d="M59.008,0H.992A.993.993,0,0,0,0,.992V59.008A.993.993,0,0,0,.992,60H59.008A.993.993,0,0,0,60,59.008V.992A.993.993,0,0,0,59.008,0ZM1.984,13.147h9.179V46.853H1.984ZM58.016,58.016H1.984V48.837H58.016v9.179ZM42.162,13.147h4.691v3.6l-29.015,30.1H13.147V43.242ZM13.147,40.395V13.147h9.786V30.24ZM24.917,28.182V13.147H35.083v4.486ZM37.067,15.574V13.147h2.34Zm0,14.187,9.787-10.156V46.853H37.067V29.761Zm-1.984,2.058V46.853H24.918V42.367ZM22.933,44.426v2.427h-2.34Zm35.083,2.427H48.837V13.147h9.179Zm0-35.69H1.984V1.984H58.016v9.178Z" fill="#00416d"/>
    <path id="Path_21" data-name="Path 21" d="M42.406,33.179a1.789,1.789,0,1,0-1.79-1.789A1.791,1.791,0,0,0,42.406,33.179Z" transform="translate(-34.047 -24.813)" fill="#00416d"/>
    <path id="Path_22" data-name="Path 22" d="M310.044,33.179a1.789,1.789,0,1,0-1.789-1.789A1.791,1.791,0,0,0,310.044,33.179Z" transform="translate(-258.402 -24.813)" fill="#00416d"/>
    <path id="Path_23" data-name="Path 23" d="M42.406,322.853a1.789,1.789,0,1,0-1.79-1.789A1.791,1.791,0,0,0,42.406,322.853Z" transform="translate(-34.047 -267.639)" fill="#00416d"/>
    <path id="Path_24" data-name="Path 24" d="M310.044,322.853a1.789,1.789,0,1,0-1.789-1.789A1.791,1.791,0,0,0,310.044,322.853Z" transform="translate(-258.402 -267.639)" fill="#00416d"/>
  </g>
</svg>
